<svg fill="#000000" xmlns="http://www.w3.org/2000/svg"  viewBox="0 0 64 64" width="64px" height="64px"><path d="M 31.988281 1 A 1.0001 1.0001 0 0 0 31.164062 1.4492188 L 28.164062 6.0078125 A 1.0001 1.0001 0 0 0 28.292969 7.2636719 L 29 7.9707031 L 29 8.6972656 C 25.985165 8.8602773 23.278167 9.2639352 21.130859 9.8496094 C 19.71133 10.236783 18.53521 10.694116 17.636719 11.273438 C 16.738227 11.852759 16 12.646782 16 13.707031 C 16 14.392032 16.33979 15.000118 16.789062 15.458984 C 17.238336 15.917851 17.812462 16.280869 18.494141 16.609375 C 18.896865 16.803451 19.352022 16.980405 19.832031 17.148438 C 18.171519 18.470716 16.744082 20.062184 15.636719 21.871094 C 15.721419 21.742341 15.631614 21.873164 15.574219 21.943359 C 15.515139 22.015609 15.451357 22.089397 15.376953 22.193359 L 10.605469 28.826172 A 1.0001 1.0001 0 0 0 10.59375 28.841797 C 8.8594315 31.352405 5.6009005 32.268586 2.8125 31.029297 A 1.0001 1.0001 0 0 0 2.8105469 31.027344 L 2.5039062 30.892578 A 1.0001 1.0001 0 0 0 1.359375 32.480469 L 1.8339844 33.001953 C 3.4314958 34.758691 5.455741 35.697303 7.546875 36.119141 C 7.6601841 36.259153 7.8021595 36.368981 7.9746094 36.431641 L 6.2871094 44.753906 C 3.9999663 56.020204 15.951998 64.966357 26.117188 59.599609 A 1.0001 1.0001 0 0 0 25.671875 57.716797 C 24.410924 57.690547 23.253582 57.374171 22.164062 56.943359 C 23.070761 56.838062 23.983705 56.77662 24.869141 56.337891 L 27.28125 55.142578 A 1.0001 1.0001 0 0 0 27.515625 54.978516 L 31.251953 56.677734 C 31.513857 56.796782 31.795281 56.857422 32.078125 56.857422 C 32.36097 56.857422 32.646903 56.796352 32.910156 56.675781 L 36.539062 55.025391 A 1.0001 1.0001 0 0 0 36.71875 55.142578 L 39.130859 56.337891 C 40.016295 56.77662 40.929239 56.838062 41.835938 56.943359 C 40.746429 57.374162 39.589061 57.688591 38.328125 57.714844 A 1.0001 1.0001 0 0 0 37.880859 59.599609 C 48.047017 64.966302 60.000054 56.017276 57.712891 44.751953 L 55.978516 36.212891 C 58.269952 35.864338 60.51934 34.919436 62.263672 33.001953 L 62.265625 33 L 62.738281 32.482422 A 1.0001 1.0001 0 0 0 61.591797 30.894531 L 61.289062 31.029297 C 58.500732 32.268555 55.240089 31.352277 53.505859 28.841797 A 1.0001 1.0001 0 0 0 53.494141 28.826172 L 48.724609 22.199219 L 48.720703 22.193359 C 48.667553 22.119149 48.649323 22.111509 48.607422 22.066406 A 1.0001 1.0001 0 0 0 48.533203 21.958984 C 48.350451 21.728087 48.160312 21.482723 47.943359 21.228516 A 1.0001 1.0001 0 0 0 47.941406 21.226562 C 47.855465 21.126295 47.794758 21.064982 47.751953 21.017578 C 46.737004 19.573268 45.512136 18.278782 44.121094 17.169922 C 44.597383 17.0044 45.047749 16.829123 45.449219 16.638672 C 46.147128 16.307595 46.732138 15.941228 47.191406 15.478516 C 47.650678 15.015813 48 14.401633 48 13.707031 C 48 12.646782 47.261773 11.852758 46.363281 11.273438 C 45.46479 10.694115 44.28867 10.236783 42.869141 9.8496094 C 40.721833 9.2639352 38.014835 8.8602773 35 8.6972656 L 35 7.9707031 L 35.707031 7.2636719 A 1.0001 1.0001 0 0 0 35.835938 6.0078125 L 32.835938 1.4492188 A 1.0001 1.0001 0 0 0 31.988281 1 z M 23.412109 2.984375 A 1.0001 1.0001 0 0 0 22.478516 4.1367188 L 22.755859 6.1171875 A 1.0001 1.0001 0 1 0 24.736328 5.8398438 L 24.458984 3.859375 A 1.0001 1.0001 0 0 0 23.412109 2.984375 z M 40.556641 2.984375 A 1.0001 1.0001 0 0 0 39.541016 3.859375 L 39.263672 5.8398438 A 1.0001 1.0001 0 1 0 41.244141 6.1171875 L 41.521484 4.1367188 A 1.0001 1.0001 0 0 0 40.556641 2.984375 z M 32 3.8203125 L 33.716797 6.4257812 L 33.292969 6.8496094 A 1.0001 1.0001 0 0 0 33 7.5566406 L 33 8.6425781 C 32.663209 8.6365871 32.342394 8.6152344 32 8.6152344 C 31.657606 8.6152344 31.336791 8.6365871 31 8.6425781 L 31 7.5566406 A 1.0001 1.0001 0 0 0 30.707031 6.8496094 L 30.283203 6.4257812 L 32 3.8203125 z M 17.919922 4.2070312 A 1.0001 1.0001 0 0 0 16.980469 5.5136719 L 17.568359 7.4257812 A 1.0002225 1.0002225 0 1 0 19.480469 6.8378906 L 18.892578 4.9257812 A 1.0001 1.0001 0 0 0 17.919922 4.2070312 z M 46.050781 4.2070312 A 1.0001 1.0001 0 0 0 45.107422 4.9257812 L 44.519531 6.8378906 A 1.0002225 1.0002225 0 1 0 46.431641 7.4257812 L 47.019531 5.5136719 A 1.0001 1.0001 0 0 0 46.050781 4.2070312 z M 12.6875 6.3203125 A 1.0001 1.0001 0 0 0 11.779297 7.78125 L 12.677734 9.5683594 A 1.0001 1.0001 0 1 0 14.464844 8.671875 L 13.568359 6.8828125 A 1.0001 1.0001 0 0 0 12.6875 6.3203125 z M 51.283203 6.3203125 A 1.0001 1.0001 0 0 0 50.431641 6.8828125 L 49.535156 8.671875 A 1.0001 1.0001 0 1 0 51.322266 9.5683594 L 52.220703 7.78125 A 1.0001 1.0001 0 0 0 51.283203 6.3203125 z M 56.183594 9.2636719 A 1.0001 1.0001 0 0 0 55.355469 9.6914062 L 54.185547 11.3125 A 1.0001 1.0001 0 1 0 55.806641 12.482422 L 56.976562 10.861328 A 1.0001 1.0001 0 0 0 56.183594 9.2636719 z M 7.7851562 9.265625 A 1.0001 1.0001 0 0 0 7.0234375 10.861328 L 8.1933594 12.482422 A 1.0001 1.0001 0 1 0 9.8144531 11.3125 L 8.6445312 9.6914062 A 1.0001 1.0001 0 0 0 7.7851562 9.265625 z M 32 10.615234 C 36.068284 10.615234 39.753809 11.072895 42.34375 11.779297 C 43.638721 12.132498 44.659664 12.555556 45.279297 12.955078 C 45.89893 13.3546 46 13.637781 46 13.707031 C 46 13.751431 45.989289 13.852838 45.773438 14.070312 C 45.557581 14.287788 45.152888 14.565858 44.591797 14.832031 C 44.111825 15.059722 43.159779 15.214545 42.476562 15.419922 C 42.486063 15.358772 42.544922 15.340992 42.544922 15.275391 C 42.544922 14.755863 42.233218 14.385706 41.976562 14.179688 C 41.719907 13.973667 41.455072 13.848471 41.15625 13.732422 C 40.558605 13.500323 39.815936 13.328156 38.912109 13.179688 C 37.104456 12.882749 34.679894 12.707031 32 12.707031 C 31.330026 12.707031 30.675376 12.717168 30.042969 12.738281 A 1.0001 1.0001 0 0 0 29.984375 12.736328 A 1.0001 1.0001 0 0 0 29.851562 12.748047 C 28.033917 12.815295 26.396265 12.964765 25.087891 13.179688 C 24.184064 13.328155 23.441395 13.500323 22.84375 13.732422 C 22.544928 13.848471 22.280092 13.973667 22.023438 14.179688 C 21.766782 14.385706 21.455078 14.755863 21.455078 15.275391 C 21.455078 15.342991 21.515331 15.360991 21.525391 15.423828 C 20.817124 15.211102 19.85086 15.044503 19.361328 14.808594 C 18.816632 14.5461 18.426571 14.272805 18.21875 14.060547 C 18.010929 13.848288 18 13.750531 18 13.707031 C 18 13.637781 18.10107 13.3546 18.720703 12.955078 C 19.340336 12.555556 20.361279 12.132498 21.65625 11.779297 C 24.246191 11.072895 27.931716 10.615234 32 10.615234 z M 32 14.966797 C 32.33575 14.966797 32.669201 14.977777 33 14.996094 L 33 17.792969 A 1.0001 1.0001 0 0 0 33.292969 18.5 L 34.216797 19.423828 L 32 22.789062 L 29.783203 19.423828 L 30.707031 18.5 A 1.0001 1.0001 0 0 0 31 17.792969 L 31 14.998047 C 31.330923 14.9803 31.663908 14.966797 32 14.966797 z M 29 15.220703 L 29 17.378906 L 27.792969 18.585938 A 1.0001 1.0001 0 0 0 27.664062 19.84375 L 31.164062 25.158203 A 1.0001 1.0001 0 0 0 32.835938 25.158203 L 36.335938 19.84375 A 1.0001 1.0001 0 0 0 36.207031 18.585938 L 35 17.378906 L 35 15.224609 C 35.953868 15.386951 36.878716 15.626254 37.769531 15.933594 C 37.597842 16.134814 37.462891 16.396664 37.462891 16.742188 C 37.462891 17.440725 37.967599 17.812778 38.328125 17.984375 C 38.688651 18.155972 39.062453 18.222656 39.46875 18.222656 C 39.597562 18.222656 39.693293 18.204526 39.796875 18.191406 A 1.0001 1.0001 0 0 0 39.974609 18.179688 C 40.564433 18.081338 41.125928 17.972082 41.664062 17.853516 C 43.437912 19.028334 44.968666 20.511542 46.162109 22.226562 A 1.0001 1.0001 0 0 0 46.230469 22.316406 C 46.320959 22.419236 46.387062 22.484449 46.423828 22.527344 C 46.571282 22.700218 46.720729 22.889249 46.873047 23.082031 A 1.0001 1.0001 0 0 0 46.873047 23.083984 A 1.0001 1.0001 0 0 0 47.042969 23.310547 C 47.119399 23.386977 47.126697 23.404779 47.091797 23.355469 A 1.0001 1.0001 0 0 0 47.097656 23.361328 L 51.859375 29.978516 C 51.859375 29.978516 51.861328 29.980469 51.861328 29.980469 C 53.375562 32.170892 55.806978 33.333191 58.332031 33.457031 C 57.198702 34.045719 56.001212 34.430632 54.765625 34.484375 A 1.0001 1.0001 0 0 0 54.636719 34.5 L 52.728516 34.5 C 50.246516 34.5 47.838672 33.729484 45.763672 32.271484 C 45.312672 31.952484 44.686141 32.062672 44.369141 32.513672 C 44.052141 32.966672 44.161281 33.591203 44.613281 33.908203 C 47.026281 35.604203 49.832516 36.5 52.728516 36.5 L 53.996094 36.5 L 55.751953 45.150391 C 57.501393 53.767181 49.7944 60.65314 41.90625 58.933594 C 43.647273 58.353163 45.234251 57.510127 46.513672 56.285156 C 46.525262 56.279059 46.537268 56.273716 46.548828 56.267578 L 46.548828 56.265625 C 49.974311 54.446373 52.109 50.824036 51.996094 46.902344 L 51.902344 43.642578 A 1.0001 1.0001 0 0 0 50.857422 42.658203 A 1.0001 1.0001 0 0 0 49.902344 43.701172 L 49.996094 46.960938 C 50.091106 50.261066 48.213052 53.273461 45.238281 54.669922 C 43.656233 55.365226 41.802087 55.429138 40.017578 54.544922 L 39.470703 54.273438 C 40.41641 53.798081 41.264291 53.181396 41.998047 52.462891 C 42.993035 51.80105 43.739579 50.813111 44.082031 49.650391 L 44.238281 49.119141 C 44.445401 48.59731 44.604835 48.055634 44.714844 47.5 L 44.777344 47.283203 A 1.0001 1.0001 0 0 0 44.818359 46.847656 C 44.953156 45.759332 44.897771 44.626902 44.615234 43.486328 L 42.9375 36.71875 A 1.0001 1.0001 0 0 0 42.431641 36.072266 C 40.396396 35.00623 38.264777 33.315161 36.378906 31.109375 C 35.534265 30.121883 34.802946 29.099261 34.177734 28.072266 A 1.0001 1.0001 0 0 0 32.326172 28.664062 C 32.545312 31.65952 33.397805 34.35516 34.533203 36.802734 C 29.918218 35.491672 26.343852 31.862147 25.539062 27.207031 A 1.0001 1.0001 0 0 0 23.595703 27.089844 L 22.75 29.908203 A 1.0001 1.0001 0 0 0 22.738281 29.955078 L 19.384766 43.486328 C 18.798506 45.853005 19.183482 48.185233 20.253906 50.152344 C 20.548421 50.867783 21.000974 51.500397 21.570312 52.011719 C 22.393752 52.926844 23.389585 53.703291 24.527344 54.275391 L 23.980469 54.546875 C 22.19596 55.43109 20.343513 55.365476 18.761719 54.669922 C 15.786948 53.273461 13.908895 50.261066 14.003906 46.960938 L 14.097656 43.701172 A 1.0001 1.0001 0 0 0 13.111328 42.658203 A 1.0001 1.0001 0 0 0 12.097656 43.642578 L 12.003906 46.902344 C 11.891 50.824036 14.025689 54.446373 17.451172 56.265625 L 17.449219 56.269531 C 17.453946 56.271974 17.459435 56.272582 17.464844 56.273438 C 17.472558 56.277519 17.480554 56.281093 17.488281 56.285156 C 18.766796 57.509277 20.350343 58.353246 22.089844 58.933594 C 14.202854 60.651944 6.4967616 53.767471 8.2460938 45.150391 L 10.003906 36.5 L 10.271484 36.5 C 11.360484 36.5 12.452578 36.370234 13.517578 36.115234 C 14.054578 35.986234 14.385813 35.445203 14.257812 34.908203 C 14.128813 34.373203 13.588734 34.043922 13.052734 34.169922 C 12.138734 34.388922 11.203484 34.5 10.271484 34.5 L 9.2910156 34.5 A 1.0001 1.0001 0 0 0 9.2421875 34.494141 C 8.0314043 34.426119 6.8607532 34.041376 5.75 33.458984 C 8.2819572 33.340811 10.720138 32.176547 12.238281 29.980469 L 17.001953 23.359375 A 1.0001 1.0001 0 0 0 17.003906 23.357422 C 17.002506 23.359422 17.066626 23.277982 17.123047 23.208984 C 17.179467 23.139984 17.179327 23.164734 17.308594 22.96875 A 1.0001 1.0001 0 0 0 17.328125 22.939453 C 18.569473 20.902644 20.263339 19.166431 22.277344 17.835938 C 22.767241 17.944725 23.279588 18.046289 23.8125 18.138672 C 24.001749 18.183362 24.219647 18.222656 24.46875 18.222656 C 24.875647 18.222656 25.251153 18.156056 25.611328 17.984375 C 25.971503 17.812698 26.474609 17.442369 26.474609 16.742188 C 26.474609 16.404266 26.330941 16.124941 26.166016 15.927734 C 27.075398 15.616854 28.022968 15.382395 29 15.220703 z M 40.833984 27.982422 C 40.578109 27.980422 40.322 28.076984 40.125 28.271484 C 39.732 28.659484 39.727234 29.291547 40.115234 29.685547 L 41.519531 31.109375 C 41.714531 31.307375 41.972469 31.40625 42.230469 31.40625 C 42.484469 31.40625 42.739594 31.312141 42.933594 31.119141 C 43.326594 30.731141 43.331359 30.099078 42.943359 29.705078 L 41.539062 28.28125 C 41.345562 28.08475 41.089859 27.984422 40.833984 27.982422 z M 24.636719 30.599609 C 26.617185 35.212777 30.864916 38.653529 36.119141 39.324219 C 35.904572 39.758154 35.769531 40.240608 35.769531 40.763672 L 35.769531 42.09375 C 35.769531 42.293355 35.797284 42.486439 35.833984 42.666016 C 36.086565 44.221943 37.438343 45.380081 39.027344 45.423828 A 1.0001 1.0001 0 0 0 39.054688 45.423828 L 39.117188 45.423828 C 40.603482 45.423828 41.922479 44.415552 42.318359 42.966797 L 42.375 42.759766 L 42.673828 43.966797 C 42.913454 44.934146 42.949847 45.90023 42.826172 46.828125 L 42.162109 49.083984 C 42.152665 49.116052 42.135413 49.144149 42.125 49.175781 C 42.124273 49.177988 42.121825 49.179436 42.121094 49.181641 C 41.914542 49.602422 41.666497 50.002895 41.386719 50.378906 C 41.120035 50.651498 40.813097 50.887099 40.457031 51.048828 L 32.078125 54.857422 L 32.076172 54.857422 L 23.701172 51.048828 C 22.872322 50.672354 22.253334 49.959339 21.996094 49.085938 L 21.199219 46.384766 A 1.0001 1.0001 0 0 0 21.111328 46.173828 C 21.078103 45.449748 21.142435 44.708528 21.326172 43.966797 L 21.699219 42.460938 L 21.837891 42.966797 C 22.233646 44.416496 23.553404 45.423828 25.039062 45.423828 L 25.101562 45.423828 A 1.0001 1.0001 0 0 0 25.128906 45.423828 C 26.717907 45.380078 28.069685 44.221943 28.322266 42.666016 C 28.358976 42.486439 28.386719 42.293355 28.386719 42.09375 L 28.386719 40.763672 C 28.386719 39.026995 27.036183 37.666121 25.449219 37.457031 C 24.920231 37.387331 24.364629 37.445121 23.824219 37.660156 L 23.509766 37.779297 A 1.0001 1.0001 0 0 0 23.498047 37.783203 C 23.223939 37.891365 22.98037 38.043605 22.751953 38.212891 L 24.636719 30.599609 z M 18.708984 31.492188 C 18.454359 31.466188 18.189109 31.538391 17.974609 31.712891 C 17.493609 32.104891 16.983984 32.462391 16.458984 32.775391 C 15.985984 33.059391 15.831234 33.674438 16.115234 34.148438 C 16.302234 34.460437 16.634609 34.634766 16.974609 34.634766 C 17.149609 34.634766 17.326328 34.587187 17.486328 34.492188 C 18.093328 34.128187 18.682281 33.715719 19.238281 33.261719 C 19.666281 32.913719 19.731813 32.283469 19.382812 31.855469 C 19.208813 31.641969 18.963609 31.518187 18.708984 31.492188 z M 35.085938 32.632812 C 36.946883 34.755414 39.012923 36.411206 41.087891 37.568359 L 41.210938 38.066406 C 41.037287 37.956633 40.852873 37.86065 40.65625 37.783203 A 1.0001 1.0001 0 0 0 40.644531 37.779297 L 40.332031 37.660156 C 39.791667 37.444786 39.235966 37.385478 38.707031 37.455078 C 38.179669 37.524471 37.684291 37.731634 37.25 38.027344 A 1.0001 1.0001 0 0 0 37.15625 37.824219 C 36.242601 36.310394 35.586467 34.527583 35.085938 32.632812 z M 25.230469 39.423828 C 25.870156 39.496711 26.386719 40.037349 26.386719 40.763672 L 26.386719 42.09375 C 26.386719 42.1591 26.383121 42.194735 26.363281 42.285156 A 1.0001 1.0001 0 0 0 26.351562 42.341797 C 26.256322 42.939271 25.734113 43.405661 25.074219 43.423828 L 25.039062 43.423828 C 24.428722 43.423828 23.935823 43.055754 23.767578 42.439453 L 23.578125 41.751953 A 1.0001 1.0001 0 0 0 23.576172 41.744141 L 23.435547 41.242188 C 23.245676 40.571851 23.588089 39.898781 24.232422 39.644531 L 24.548828 39.523438 A 1.0001 1.0001 0 0 0 24.564453 39.517578 C 24.790543 39.427614 25.01724 39.399534 25.230469 39.423828 z M 38.923828 39.423828 C 39.136883 39.399707 39.363708 39.427448 39.589844 39.517578 A 1.0001 1.0001 0 0 0 39.605469 39.523438 L 39.923828 39.644531 C 40.570452 39.899226 40.911096 40.570099 40.720703 41.240234 A 1.0001 1.0001 0 0 0 40.720703 41.242188 L 40.580078 41.744141 A 1.0001 1.0001 0 0 0 40.578125 41.751953 L 40.388672 42.439453 C 40.220553 43.054698 39.726891 43.423828 39.117188 43.423828 L 39.082031 43.423828 C 38.422137 43.405658 37.899929 42.939271 37.804688 42.341797 A 1.0001 1.0001 0 0 0 37.792969 42.285156 C 37.773089 42.194736 37.769531 42.1591 37.769531 42.09375 L 37.769531 40.763672 C 37.769531 40.035987 38.284664 39.496192 38.923828 39.423828 z M 28.949219 45.035156 A 1.0001 1.0001 0 0 0 27.949219 46.035156 L 27.949219 47.703125 C 27.949219 49.770618 29.648433 51.466797 31.714844 51.466797 L 32.443359 51.466797 C 34.510853 51.466797 36.207031 49.769536 36.207031 47.703125 L 36.207031 46.035156 A 1.0001 1.0001 0 0 0 35.207031 45.035156 L 28.949219 45.035156 z M 29.949219 47.035156 L 34.207031 47.035156 L 34.207031 47.703125 C 34.207031 48.688714 33.429866 49.466797 32.443359 49.466797 L 31.714844 49.466797 C 30.729254 49.466797 29.949219 48.689632 29.949219 47.703125 L 29.949219 47.035156 z"/></svg>